<svg id="Layer_1" height="512" viewBox="0 0 64 64" width="512" xmlns="http://www.w3.org/2000/svg" data-name="Layer 1"><path d="m9.74 52.637a41.236 41.236 0 0 0 3.671-4.987c3.935-6.3 11.915-18 14.2-27.421l.342-1.126-4.067-1.21-.81 2.373q-1.211 3.534-2.722 6.934l-1.665 3.527q-1.761 3.516-3.843 6.855l-2.746 4.123q-2.181 3.077-4.639 5.957l-5.461 6.338 4 3z" fill="#79a837"/><path d="m13.411 47.65c.059-.095.128-.2.189-.3l-7.479 1.87-4.121 4.78 4 3 3.74-4.363a41.236 41.236 0 0 0 3.671-4.987z" fill="#b5c283"/><path d="m30.846 8.389-3.364-.777a3.169 3.169 0 0 0 -2.246-1.491s-2.142 3.841.825 5.908l3.325 1.036a4.524 4.524 0 0 0 3.977-4.5s-1.603-.865-2.517-.176z" fill="#548513"/><path d="m28.991 14.505-3.365-.777a3.167 3.167 0 0 0 -2.246-1.492s-2.141 3.842.825 5.909l3.325 1.036a4.523 4.523 0 0 0 3.977-4.505s-1.602-.861-2.516-.171z" fill="#548513"/><path d="m12.3 41.806c3.844 1.8 2.4-5.125 2.4-5.125s-6.24 3.328-2.4 5.125z" fill="#5e9415"/><path d="m22.143 23s-5.746 4.121-1.7 5.4a3.468 3.468 0 0 0 .551.12c3.255.48 1.149-5.52 1.149-5.52z" fill="#5e9415"/><path d="m-5.027 34.379h65.054v4.243h-65.054z" fill="#c6d48f" transform="matrix(.707 -.707 .707 .707 -17.755 30.136)"/><path d="m52 15-23.5 23.5-10 4 30.5-30.5z" fill="#79a837"/><path d="m58.879 7.645-2.6-2.271a3.167 3.167 0 0 0 -1.279-2.374s-3.7 2.379-2.058 5.6l2.445 2.481a4.523 4.523 0 0 0 5.63-2.1s-1.007-1.513-2.138-1.336z" fill="#548513"/><path d="m54.359 12.164-2.6-2.271a3.173 3.173 0 0 0 -1.278-2.374s-3.7 2.379-2.058 5.6l2.444 2.481a4.523 4.523 0 0 0 5.633-2.1s-1.009-1.513-2.141-1.336z" fill="#548513"/><path d="m32.747 28s-7 1-4 4 4-4 4-4z" fill="#5e9415"/><path d="m47.743 16.257c3 3 4-4 4-4s-7 1-4 4z" fill="#5c9114"/><path d="m43.747 17s-7 1-4 4 4-4 4-4z" fill="#5e9415"/><path d="m37 30c3 3 4-4 4-4s-7 1-4 4z" fill="#5e9415"/><path d="m52.484 11.516c3 3 4-4 4-4s-7 1-4 4z" fill="#5c9114"/><path d="m57 7c3 3 4-4 4-4s-7 1-4 4z" fill="#5c9114"/><path d="m22.143 32s-5.746 4.121-1.7 5.4a3.468 3.468 0 0 0 .551.12c3.255.48 1.149-5.52 1.149-5.52z" fill="#5e9415"/><g fill="#5c9114"><path d="m25.084 21.234c4.06 1.231 1.643-5.414 1.643-5.414s-5.703 4.18-1.643 5.414z"/><path d="m27.031 14.817c4.06 1.232 1.642-5.413 1.642-5.413s-5.702 4.182-1.642 5.413z"/><path d="m28.885 8.706c4.06 1.231 1.643-5.414 1.643-5.414s-5.703 4.182-1.643 5.414z"/></g></svg>