<?xml version="1.0" encoding="iso-8859-1"?>
<!-- Generator: Adobe Illustrator 19.0.0, SVG Export Plug-In . SVG Version: 6.00 Build 0)  -->
<svg version="1.1" id="Capa_1" xmlns="http://www.w3.org/2000/svg" xmlns:xlink="http://www.w3.org/1999/xlink" x="0px" y="0px"
	 viewBox="0 0 512 512" style="enable-background:new 0 0 512 512;" xml:space="preserve">
<circle style="fill:#F7F0E6;" cx="256" cy="256" r="248.5"/>
<path style="fill:#EEE2D4;" d="M414.741,295.196c-0.219-5.118-3.184-9.718-7.753-12.032l-28.33-14.342
	c-0.759-0.384-1.551-0.699-2.366-0.941l-22.855-6.785l0.568-1.269c0.868-1.938,1.198-3.995,1.259-6.052l8.716,1.092
	c3.545,0.445,7.125-0.468,10.027-2.552l23.962-17.217c4.038-2.901,6.259-7.707,5.853-12.662l-2.382-29.035
	c-0.221-2.688-1.204-5.257-2.834-7.406l-17.718-23.345c-1.562-2.058-3.658-3.65-6.06-4.604l-28.924-11.475
	c-3.192-1.267-6.63-1.183-9.767-0.111l-2.841-9.937c-0.244-0.855-0.566-1.687-0.959-2.485l-13.708-27.773
	c-2.342-4.745-7.037-7.881-12.317-8.226L276.711,96.1c-3.728-0.245-7.41,0.929-10.31,3.284l-23.953,19.458
	c-4.037,3.278-6.059,8.433-5.327,13.581l4.282,30.167c0.397,2.793,1.582,5.415,3.417,7.557l19.942,23.276
	c1.758,2.053,4.044,3.585,6.611,4.432l5.156,1.7l-23.382,3.506c-5.987,0.897-10.95,5.105-12.818,10.862l-10.037,30.953
	c-1.78,5.491-0.458,11.515,3.459,15.755l24.28,26.284c0.304,0.329,0.666,0.598,0.996,0.901l-7.918,3.104
	c-0.921,0.361-1.735,0.914-2.567,1.434l-2.175-6.503c-1.276-3.818-3.949-7.011-7.481-8.942l-29.174-15.952
	c-4.916-2.688-10.881-2.602-15.717,0.226l-28.338,16.575c-2.623,1.535-4.754,3.786-6.142,6.491l-4.464,8.699
	c-1.902-3.902-5.293-6.942-9.538-8.268l-30.509-9.528c-3.842-1.201-7.996-0.904-11.629,0.828l-30.012,14.31
	c-5.057,2.412-8.481,7.298-9.019,12.874l-3.156,32.677c-0.292,3.026,0.286,6.071,1.665,8.78l14.989,29.428
	c1.322,2.595,3.327,4.779,5.801,6.316l29.787,18.501c5.143,3.194,11.649,3.204,16.802,0.027l27.696-17.081
	c2.858-1.763,4.922-4.39,6.195-7.375l12.238,5.068l-1.598,22.592c-0.388,5.48,2.213,10.743,6.802,13.763l28.45,18.725
	c0.763,0.502,1.569,0.934,2.408,1.29l29.23,12.429c4.994,2.123,10.741,1.422,15.078-1.839l24.313-18.286
	c1.907-1.435,3.374-3.315,4.418-5.418l13.213,7.92c0.823,0.493,1.688,0.911,2.585,1.248l31.232,11.754
	c5.336,2.008,11.337,1.018,15.745-2.598l24.712-20.27c3.113-2.552,5.144-6.187,5.691-10.175l4.516-32.943
	c0.762-5.551-1.444-11.095-5.81-14.606l-11.881-9.557l8.582,0.332c2.583,0.1,5.142-0.508,7.405-1.759l27.23-15.061
	c4.701-2.6,7.526-7.635,7.296-13.002L414.741,295.196z"/>
<path style="fill:#FFC173;" d="M330.485,275.111l-1.913,29.445c-0.323,4.962,1.98,9.729,6.066,12.561l23.944,16.596
	c2.217,1.536,4.826,2.408,7.521,2.512l29.285,1.134c2.582,0.1,5.143-0.508,7.404-1.759l27.23-15.061
	c4.701-2.6,7.527-7.635,7.297-13.002l-1.236-28.849c-0.219-5.117-3.184-9.718-7.754-12.032l-28.33-14.342
	c-0.759-0.384-1.551-0.699-2.367-0.941l-28.388-8.428c-4.85-1.44-10.1-0.184-13.773,3.295l-20.592,19.505
	C332.286,268.201,330.717,271.547,330.485,275.111z"/>
<path style="fill:#FAAF69;" d="M308.204,402.224l5.614-31.147c0.946-5.248-0.929-10.608-4.94-14.123l-23.502-20.593
	c-2.176-1.907-4.851-3.152-7.71-3.591l-31.071-4.764c-2.74-0.42-5.542-0.083-8.104,0.975l-30.847,12.744
	c-5.326,2.2-8.948,7.223-9.355,12.97l-2.185,30.894c-0.388,5.48,2.213,10.743,6.803,13.764l28.449,18.724
	c0.762,0.502,1.568,0.934,2.408,1.291l29.23,12.428c4.993,2.124,10.741,1.422,15.077-1.84l24.313-18.286
	C305.446,409.369,307.524,405.994,308.204,402.224z"/>
<path style="fill:#FFA55F;" d="M265.914,416.776c-0.852-0.336-1.661-0.762-2.418-1.273l-28.24-19.085
	c-4.555-3.079-6.802-8.952-5.877-15.36l5.219-36.123c0.971-6.72,5.266-12.901,11.09-15.961l1.631-0.857l-0.724-0.111
	c-2.74-0.42-5.542-0.083-8.104,0.975l-30.847,12.744c-5.326,2.2-8.948,7.223-9.355,12.97l-2.185,30.894
	c-0.388,5.48,2.213,10.743,6.803,13.764l28.449,18.724c0.762,0.502,1.568,0.934,2.408,1.291l29.23,12.428
	c4.993,2.124,10.741,1.422,15.077-1.84l7.318-5.504L265.914,416.776z"/>
<path style="fill:#FFC173;" d="M287.744,82.875l-23.953,19.458c-4.036,3.279-6.058,8.433-5.327,13.582l4.282,30.167
	c0.397,2.793,1.582,5.415,3.417,7.557l19.942,23.277c1.758,2.053,4.045,3.585,6.611,4.432l30.908,10.191
	c5.336,1.76,11.208,0.349,15.163-3.641l21.258-21.451c3.771-3.805,5.194-9.35,3.722-14.501l-9.128-31.931
	c-0.245-0.855-0.566-1.687-0.96-2.485l-13.708-27.773c-2.341-4.745-7.037-7.88-12.316-8.226l-29.601-1.939
	C294.326,79.346,290.644,80.52,287.744,82.875z"/>
<path style="fill:#FAAF69;" d="M358.984,167.252c-3.956,3.99-9.827,5.401-15.163,3.641l-30.908-10.191
	c-2.567-0.847-4.853-2.379-6.611-4.432l-19.942-23.276c-1.835-2.143-3.021-4.764-3.417-7.557L278.66,95.27
	c-0.255-1.794-0.064-3.558,0.318-5.273l-15.188,12.337c-4.037,3.278-6.059,8.433-5.327,13.581l4.282,30.167
	c0.397,2.793,1.582,5.415,3.417,7.557l19.942,23.276c1.758,2.053,4.044,3.585,6.611,4.432l30.908,10.191
	c5.336,1.76,11.208,0.349,15.163-3.641l21.258-21.451c0.335-0.338,0.548-0.754,0.845-1.117L358.984,167.252z"/>
<circle style="fill:#ADDF6E;" cx="300.82" cy="118.98" r="10.897"/>
<path style="fill:#FFC173;" d="M395.347,235.806l23.963-17.217c4.038-2.901,6.259-7.707,5.853-12.662l-2.381-29.035
	c-0.221-2.688-1.204-5.257-2.834-7.406l-17.718-23.344c-1.562-2.059-3.658-3.65-6.06-4.604l-28.924-11.475
	c-4.993-1.981-10.678-0.967-14.678,2.618l-21.503,19.272c-3.814,3.419-5.486,8.63-4.372,13.63l6.907,30.993
	c0.185,0.83,0.445,1.642,0.775,2.426l11.513,27.283c1.967,4.661,6.271,7.919,11.29,8.548l28.143,3.525
	C388.866,238.803,392.447,237.89,395.347,235.806z"/>
<path style="fill:#FAAF69;" d="M357.587,218.12c-0.353-0.778-0.618-1.588-0.793-2.421l-6.533-31.099
	c-1.054-5.017,1.251-10.407,6.028-14.098l26.926-20.806c5.009-3.87,11.895-5.224,17.78-3.495l1.648,0.484l-0.413-0.544
	c-1.562-2.059-3.658-3.65-6.06-4.604l-28.924-11.475c-4.993-1.981-10.678-0.967-14.678,2.618l-21.503,19.272
	c-3.814,3.419-5.486,8.63-4.372,13.63l6.907,30.993c0.185,0.83,0.445,1.642,0.775,2.426l11.513,27.283
	c1.967,4.661,6.271,7.919,11.29,8.548l8.471,1.061L357.587,218.12z"/>
<circle style="fill:#ADDF6E;" cx="384.91" cy="200.61" r="10.419"/>
<path style="fill:#FFC173;" d="M124.718,259.473l-30.014,14.311c-5.058,2.411-8.48,7.297-9.019,12.874l-3.156,32.677
	c-0.292,3.026,0.285,6.071,1.665,8.78l14.989,29.428c1.322,2.595,3.328,4.779,5.801,6.316l29.788,18.501
	c5.142,3.194,11.649,3.204,16.801,0.027l27.696-17.081c4.913-3.03,7.808-8.476,7.57-14.243l-1.472-35.752
	c-0.04-0.958-0.165-1.91-0.376-2.846l-7.322-32.557c-1.25-5.562-5.373-10.035-10.815-11.734l-30.508-9.528
	C132.504,257.444,128.351,257.741,124.718,259.473z"/>
<path style="fill:#FAAF69;" d="M163.065,286.627c0.236,0.933,0.369,1.885,0.396,2.844l1.036,35.795
	c0.167,5.774-3.466,11.293-9.5,14.432l-34.017,17.699c-6.328,3.292-14.235,3.419-20.417,0.327l-1.731-0.866l0.349,0.685
	c1.322,2.595,3.328,4.779,5.801,6.316l29.788,18.501c5.142,3.194,11.649,3.204,16.801,0.027l27.696-17.081
	c4.913-3.03,7.808-8.476,7.57-14.243l-1.472-35.752c-0.04-0.958-0.165-1.91-0.376-2.846l-7.322-32.557
	c-1.25-5.562-5.373-10.035-10.815-11.734l-9.183-2.867L163.065,286.627z"/>
<circle style="fill:#ADDF6E;" cx="129.27" cy="300.6" r="11.741"/>
<path style="fill:#FAAF69;" d="M361.749,273.663l13.597-30.344c2.291-5.113,1.734-11.053-1.468-15.65l-18.762-26.94
	c-1.737-2.494-4.15-4.44-6.955-5.61l-30.481-12.711c-2.688-1.121-5.631-1.485-8.511-1.054l-34.678,5.2
	c-5.987,0.897-10.951,5.104-12.818,10.862l-10.036,30.953c-1.78,5.491-0.458,11.515,3.459,15.755l24.28,26.285
	c0.651,0.704,1.363,1.348,2.129,1.925l26.667,20.061c4.555,3.428,10.594,4.165,15.84,1.935l29.415-12.503
	C357.131,280.252,360.103,277.336,361.749,273.663z"/>
<path style="fill:#FFA55F;" d="M314.945,277.814c-0.784-0.558-1.502-1.197-2.144-1.91l-23.975-26.599
	c-3.867-4.291-4.674-10.848-2.111-17.149l14.451-35.518c2.689-6.607,8.63-11.826,15.343-13.474l1.88-0.462l-0.71-0.296
	c-2.688-1.121-5.631-1.485-8.511-1.054l-34.678,5.2c-5.987,0.897-10.951,5.104-12.818,10.862l-10.036,30.953
	c-1.78,5.491-0.458,11.515,3.459,15.755l24.28,26.285c0.651,0.704,1.363,1.348,2.129,1.925l26.667,20.061
	c4.555,3.428,10.594,4.165,15.84,1.935l8.853-3.763L314.945,277.814z"/>
<circle style="fill:#ADDF6E;" cx="331.65" cy="245.28" r="11.741"/>
<path style="fill:#FFC173;" d="M260.23,260.402l-29.175-15.952c-4.916-2.688-10.881-2.602-15.717,0.227L187,261.251
	c-2.624,1.535-4.754,3.786-6.142,6.49l-15.08,29.381c-1.33,2.591-1.925,5.496-1.723,8.401l2.443,34.98
	c0.421,6.039,4.223,11.32,9.816,13.636l30.063,12.451c5.333,2.209,11.443,1.366,15.979-2.203l28.121-22.127
	c0.753-0.593,1.452-1.253,2.087-1.971l22.106-24.998c3.777-4.27,4.989-10.232,3.18-15.638l-10.139-30.311
	C266.435,265.526,263.762,262.333,260.23,260.402z"/>
<path style="fill:#FAAF69;" d="M260.671,307.388c-0.618,0.737-1.312,1.402-2.073,1.986l-28.411,21.799
	c-4.583,3.516-11.184,3.803-17.262,0.749l-34.265-17.213c-6.374-3.202-11.107-9.538-12.219-16.36l-0.312-1.91l-0.351,0.684
	c-1.33,2.591-1.925,5.496-1.723,8.401l2.443,34.98c0.421,6.039,4.223,11.32,9.816,13.636l30.063,12.451
	c5.333,2.209,11.443,1.366,15.979-2.203l28.121-22.127c0.753-0.593,1.452-1.253,2.087-1.971l22.106-24.998
	c3.777-4.27,4.989-10.232,3.18-15.638l-3.052-9.123L260.671,307.388z"/>
<path style="fill:#FFC173;" d="M399.981,394.133l4.515-32.943c0.761-5.551-1.444-11.094-5.81-14.606l-25.58-20.577
	c-2.368-1.905-5.231-3.094-8.252-3.428l-32.825-3.627c-2.895-0.32-5.821,0.158-8.464,1.382l-31.816,14.741
	c-5.493,2.545-9.073,7.978-9.246,14.029l-0.927,32.526c-0.165,5.77,2.799,11.179,7.749,14.147l30.691,18.397
	c0.822,0.493,1.688,0.911,2.585,1.248l31.232,11.753c5.335,2.008,11.337,1.018,15.745-2.598l24.712-20.27
	C397.403,401.755,399.435,398.12,399.981,394.133z"/>
<path style="fill:#FAAF69;" d="M356.233,411.279c-0.909-0.315-1.778-0.726-2.594-1.23l-30.488-18.784
	c-4.918-3.03-7.536-9.096-6.848-15.863l3.881-38.149c0.722-7.097,4.957-13.775,10.935-17.245l1.674-0.972l-0.764-0.084
	c-2.895-0.32-5.821,0.158-8.464,1.382l-31.816,14.741c-5.493,2.545-9.073,7.978-9.246,14.029l-0.927,32.526
	c-0.165,5.77,2.799,11.179,7.749,14.147l30.691,18.397c0.822,0.493,1.688,0.911,2.585,1.248l31.232,11.753
	c5.335,2.008,11.337,1.018,15.745-2.598l7.438-6.101L356.233,411.279z"/>
<path style="fill:#C9E66E;" d="M333.466,358.685c-1.941-1.019-3.493-2.78-4.196-5.04l-2.251-7.232
	c-1.407-4.52,1.114-9.32,5.634-10.727c4.52-1.407,9.32,1.115,10.727,5.634l2.251,7.232c1.407,4.52-1.115,9.32-5.634,10.727
	C337.737,359.983,335.407,359.705,333.466,358.685z"/>
<circle style="fill:#ADDF6E;" cx="363.11" cy="375.36" r="11.741"/>
<path style="fill:#FFC173;" d="M367.57,309.374l-11.321-31.264c-1.907-5.268-6.437-9.151-11.935-10.23l-32.215-6.323
	c-2.983-0.585-6.07-0.307-8.9,0.802l-30.747,12.053c-2.711,1.063-5.08,2.847-6.85,5.159l-21.313,27.845
	c-3.68,4.807-4.323,11.282-1.663,16.719l14.303,29.227c2.537,5.185,7.676,8.596,13.439,8.921l35.726,2.016
	c0.957,0.054,1.917,0.021,2.869-0.097l33.115-4.117c5.657-0.703,10.51-4.371,12.732-9.621l12.453-29.436
	C368.832,317.321,368.94,313.158,367.57,309.374z"/>
<path style="fill:#FAAF69;" d="M335.205,344.895c-0.951,0.144-1.912,0.184-2.869,0.118l-35.726-2.453
	c-5.763-0.396-10.902-4.549-13.439-10.86l-14.303-35.578c-2.661-6.619-2.017-14.5,1.663-20.352l1.03-1.639l-0.716,0.281
	c-2.711,1.063-5.08,2.847-6.85,5.159l-21.313,27.845c-3.68,4.807-4.323,11.282-1.663,16.719l14.303,29.227
	c2.537,5.185,7.676,8.596,13.439,8.921l35.726,2.016c0.957,0.054,1.917,0.021,2.869-0.097l33.115-4.117
	c5.657-0.703,10.51-4.371,12.732-9.621l3.748-8.86L335.205,344.895z"/>
<circle style="fill:#ADDF6E;" cx="326.2" cy="309.9" r="11.741"/>
<circle style="fill:#EEE2D4;" cx="151.03" cy="176.74" r="68.55"/>
<circle style="fill:#FFFFFF;" cx="170.31" cy="157.46" r="68.55"/>
<circle style="fill:#E1E66E;" cx="170.31" cy="157.46" r="34.28"/>
<path style="fill:#CDE16E;" d="M170.31,123.181c-13.143,0-24.544,7.405-30.295,18.262c4.781-2.533,10.226-3.981,16.013-3.981
	c18.93,0,34.276,15.346,34.276,34.276c0,5.788-1.448,11.232-3.981,16.013c10.858-5.751,18.262-17.153,18.262-30.295
	C204.586,138.527,189.24,123.181,170.31,123.181z"/>
<path d="M313.003,222.394c0.106,0.004,0.212,0.006,0.317,0.006c3.999,0,7.321-3.156,7.488-7.188l0.314-7.567
	c0.172-4.139-3.043-7.633-7.182-7.805c-4.162-0.174-7.633,3.044-7.805,7.182l-0.314,7.567
	C305.649,218.727,308.865,222.222,313.003,222.394z"/>
<path d="M275.956,228.209c0.794,3.476,3.884,5.831,7.305,5.831c0.553,0,1.115-0.062,1.678-0.19c4.038-0.923,6.563-4.944,5.641-8.982
	l-0.962-4.209c-0.923-4.038-4.942-6.562-8.982-5.641c-4.038,0.923-6.563,4.944-5.641,8.982L275.956,228.209z"/>
<path d="M191.465,311.424l7.564,0.39c0.131,0.006,0.262,0.01,0.393,0.01c3.965,0,7.277-3.108,7.484-7.114
	c0.213-4.137-2.967-7.663-7.104-7.876l-7.564-0.39c-4.125-0.215-7.663,2.967-7.876,7.104
	C184.148,307.684,187.329,311.21,191.465,311.424z"/>
<path d="M199.207,337.005c0.766,3.509,3.871,5.903,7.32,5.903c0.53,0,1.068-0.056,1.606-0.174l4.218-0.92
	c4.047-0.883,6.612-4.879,5.729-8.926c-0.883-4.048-4.885-6.612-8.926-5.729l-4.218,0.92
	C200.889,328.961,198.324,332.958,199.207,337.005z"/>
<path d="M216.73,285.777c0.514,3.759,3.73,6.484,7.421,6.484c0.338,0,0.681-0.023,1.026-0.07c4.104-0.561,6.976-4.343,6.414-8.447
	l-1.146-8.375c-0.561-4.103-4.339-6.978-8.447-6.414c-4.104,0.561-6.976,4.343-6.414,8.447L216.73,285.777z"/>
<path d="M380.877,175.208c1.265,0.827,2.688,1.222,4.095,1.222c2.448,0,4.847-1.197,6.286-3.399l3.761-5.758
	c2.266-3.468,1.291-8.115-2.177-10.38c-3.466-2.265-8.115-1.291-10.38,2.177l-3.761,5.758
	C376.435,168.296,377.41,172.943,380.877,175.208z"/>
<path d="M350.198,158.012l-1.205,3.731c-1.273,3.941,0.89,8.169,4.832,9.442c0.766,0.248,1.543,0.365,2.307,0.365
	c3.167,0,6.11-2.021,7.135-5.197l1.205-3.731c1.273-3.941-0.89-8.169-4.832-9.442C355.695,151.906,351.47,154.07,350.198,158.012z"
	/>
<path d="M305.999,144.728c-3.696-1.866-8.209-0.383-10.075,3.314l-3.1,6.14c-1.867,3.697-0.383,8.208,3.314,10.075
	c1.084,0.547,2.238,0.807,3.375,0.807c2.74,0,5.381-1.508,6.701-4.121l3.1-6.14C311.18,151.105,309.696,146.594,305.999,144.728z"/>
<path d="M301.182,139.305c2.093,0,4.195-0.334,6.241-1.007c10.428-3.431,16.12-14.705,12.69-25.132
	c-3.43-10.428-14.704-16.119-25.132-12.69l0,0c-10.427,3.431-16.12,14.705-12.69,25.132c1.662,5.051,5.191,9.153,9.938,11.55
	C295.053,138.584,298.107,139.305,301.182,139.305z M299.667,114.725c2.569-0.846,5.351,0.557,6.196,3.128
	c0.846,2.571-0.558,5.35-3.128,6.196c-1.247,0.41-2.576,0.31-3.746-0.281c-1.17-0.591-2.041-1.602-2.45-2.847
	C295.694,118.35,297.097,115.571,299.667,114.725z"/>
<path d="M261.043,385.878c-1.275-3.94-5.502-6.104-9.444-4.827c-3.941,1.275-6.102,5.503-4.827,9.444l2.945,9.104
	c1.027,3.174,3.969,5.193,7.134,5.193c0.765,0,1.543-0.118,2.31-0.366c3.941-1.275,6.102-5.503,4.827-9.444L261.043,385.878z"/>
<path d="M128.181,329.128c-3.299-2.502-8.004-1.857-10.508,1.444l-4.427,5.837c-2.503,3.3-1.856,8.005,1.444,10.508
	c1.355,1.028,2.947,1.524,4.526,1.524c2.266,0,4.506-1.023,5.981-2.969l4.427-5.837
	C132.128,336.335,131.481,331.631,128.181,329.128z"/>
<path d="M148.186,338.405c-3.93-1.309-8.177,0.814-9.487,4.743l-2.143,6.427c-1.31,3.93,0.813,8.177,4.743,9.487
	c0.787,0.262,1.586,0.387,2.373,0.387c3.14,0,6.066-1.988,7.114-5.13l2.143-6.427C154.239,343.962,152.115,339.715,148.186,338.405z
	"/>
<path d="M128.302,321.984c0.935,0,1.883-0.063,2.834-0.194c11.316-1.556,19.258-12.028,17.703-23.346
	c-0.754-5.482-3.597-10.343-8.006-13.687s-9.858-4.767-15.339-4.017c-11.317,1.556-19.259,12.028-17.703,23.346
	C109.216,314.452,118.119,321.985,128.302,321.984z M127.537,295.602c0.264-0.037,0.528-0.054,0.791-0.054
	c1.239,0,2.438,0.401,3.442,1.163c1.217,0.923,2.001,2.264,2.209,3.777c0.429,3.123-1.763,6.014-4.885,6.443
	c-3.121,0.432-6.014-1.762-6.443-4.886C122.222,298.921,124.414,296.031,127.537,295.602z"/>
<path d="M442.917,280.418c-0.105-8.284-4.69-15.892-11.966-19.854c0,0-32.555-17.603-33.702-18.012l23.383-14.469
	c6.526-4.038,10.519-11.314,10.419-18.988l-0.385-29.808c-0.054-4.195-1.299-8.267-3.599-11.775l-16.442-25.08
	c-2.2-3.355-5.275-6.045-8.895-7.779l-28.718-13.752c-3.857-1.847-8.035-2.5-12.082-2.021c-0.019-0.056-0.036-0.112-0.056-0.167
	c-0.316-1.05-0.692-2.085-1.159-3.073l-12.948-27.396c-3.345-7.079-10.271-11.877-18.076-12.522l-28.924-2.389
	c-5.543-0.458-11.009,1.182-15.387,4.615l-23.755,18.637c-6.039,4.737-9.2,12.41-8.25,20.026l3.688,29.583
	c0.52,4.163,2.208,8.071,4.882,11.303l15.963,19.286l-1.911,0.174c-8.92,0.81-16.483,6.498-19.738,14.843l-11.821,30.315
	c-2.809,7.202-1.855,15.295,2.415,21.632l-10.249-5.46c-7.225-3.85-16.076-3.625-23.097,0.584l-28.156,16.881
	c-3.838,2.301-6.924,5.634-8.925,9.637l-0.557,1.114c-2.666-2.441-5.903-4.269-9.496-5.238l-29.847-8.056
	c-5.602-1.512-11.517-0.857-16.652,1.842l-28.469,14.966c-7.084,3.725-11.77,11.003-12.228,18.994l-1.815,31.703
	c-0.25,4.369,0.747,8.696,2.884,12.514l15.6,27.876c2.043,3.652,5.047,6.675,8.686,8.743l29.49,16.756
	c3.549,2.016,7.451,3.018,11.343,3.018c4.459,0,8.904-1.315,12.785-3.923l28.891-19.419l0.513,0.206l-0.814,16.676
	c-0.414,8.463,3.789,16.517,10.967,21.021l30.313,19.015c1.189,0.746,2.454,1.388,3.76,1.911l30.987,12.383
	c2.801,1.119,5.749,1.667,8.684,1.667c5.192,0,10.339-1.716,14.533-5.016l24.59-19.351c0,0,9.13,5.53,10.229,5.968l30.988,12.383
	c2.8,1.119,5.749,1.667,8.683,1.667c5.192,0,10.339-1.715,14.533-5.016l25.117-19.766c4.664-3.67,7.742-8.92,8.666-14.782
	l5.182-32.846c1.022-6.48-0.775-13.087-4.755-18.164l22.656-11.655c7.788-4.006,12.557-11.935,12.445-20.692L442.917,280.418z
	 M359.215,135.222c2.107-1.641,4.914-1.943,7.32-0.791l28.718,13.751c1.151,0.552,2.129,1.407,2.829,2.474l13.565,20.691
	l-2.666,1.424c-3.654,1.952-5.034,6.495-3.083,10.149c1.351,2.529,3.943,3.968,6.622,3.968c1.091,0,2.192-0.252,3.234-0.752
	l0.299,23.153c0.032,2.44-1.238,4.754-3.313,6.039l-25.675,15.888c-1.474,0.911-3.601,1.41-6.065,0.61
	c-0.545-1.555-1.233-3.065-2.105-4.487l-5.445-8.88c2.837,1.522,6.046,2.376,9.381,2.376c1.349,0,2.718-0.138,4.09-0.426l0,0
	c10.743-2.253,17.65-12.827,15.398-23.571c-2.253-10.744-12.828-17.649-23.57-15.397c-5.205,1.091-9.673,4.144-12.581,8.596
	c-2.22,3.399-3.319,7.302-3.234,11.274l-1.201-1.959c-2.339-3.814-5.702-6.867-9.726-8.827l-15.208-7.409l-3.51-23.168
	c-0.378-2.498,0.625-5.013,2.618-6.566L359.215,135.222z M378.726,198.241c0.717-1.098,1.818-1.85,3.102-2.119
	c0.338-0.071,0.676-0.105,1.009-0.105c2.272,0,4.317,1.591,4.802,3.9c0.555,2.649-1.147,5.256-3.796,5.812
	c-2.647,0.554-5.255-1.147-5.811-3.796C377.762,200.649,378.009,199.338,378.726,198.241z M275.847,151.976l2.242-1.539
	c3.349-2.299,4.523-6.864,2.376-10.312c-2.216-3.559-6.857-4.573-10.34-2.395l-2.864-22.973c-0.304-2.436,0.692-4.854,2.624-6.369
	l23.755-18.637c1.392-1.093,3.124-1.615,4.894-1.468l28.923,2.389c2.49,0.206,4.682,1.724,5.75,3.983l9.262,19.597l-6.523,0.268
	c-4.057,0.167-7.478,3.407-7.494,7.467c-0.017,4.198,3.38,7.539,7.495,7.539c0.104,0,0.208-0.002,0.313-0.006l6.193-0.254
	l-15.765,12.281c-6.275,4.888-9.422,12.783-8.23,20.648l1.979,13.06c-3.342-1.281-6.937-1.794-10.516-1.468l-5.92,0.538
	c-3.144,0.285-6.312-0.104-9.292-1.143c-1.206-0.42-2.273-1.162-3.086-2.145L275.847,151.976z M257.414,227.565l11.822-30.315
	c1.173-3.01,3.901-5.062,7.119-5.354l34.923-3.171c1.539-0.143,3.083,0.144,4.471,0.82l25.241,12.297l-2.149,3.561
	c-2.141,3.546-1.001,8.156,2.545,10.297c1.212,0.732,2.549,1.08,3.869,1.08c2.541,0,5.02-1.292,6.428-3.625l0.456-0.756
	l13.969,22.781c1.053,1.717,1.459,3.758,1.144,5.749c-0.142,0.9-0.428,1.768-0.85,2.579l-11.073,21.295
	c-2.792-2.102-6.055-3.592-9.568-4.282l-0.591-0.116c7.102-8.017,7.127-20.307-0.279-28.355c-3.828-4.16-9.047-6.58-14.695-6.815
	c-5.645-0.23-11.05,1.745-15.21,5.573s-6.58,9.047-6.815,14.695c-0.119,2.866,0.337,5.666,1.31,8.274
	c-3.068-0.06-6.127,0.468-9.016,1.6l-19.519,7.651L258.76,236.01C256.818,233.648,256.303,230.413,257.414,227.565z M333.49,250.917
	c-2.501,2.301-6.409,2.139-8.71-0.362c-1.115-1.211-1.691-2.785-1.623-4.43c0.068-1.646,0.773-3.166,1.985-4.28
	c1.147-1.056,2.618-1.629,4.168-1.629c0.087,0,0.174,0.002,0.262,0.006c1.645,0.068,3.165,0.773,4.28,1.985
	C336.153,244.708,335.991,248.615,333.49,250.917z M181.326,348.225c-2.999-1.204-5.022-3.952-5.282-7.171
	c-0.333-4.128-3.943-7.202-8.079-6.873c-4.129,0.333-7.206,3.95-6.873,8.079c0.542,6.72,3.857,12.697,9.007,16.667l-21.316,14.325
	c-2.516,1.692-5.716,1.811-8.352,0.313l-29.49-16.756c-1.26-0.716-2.299-1.763-3.007-3.027l-13.131-23.465l3.427-1.532
	c3.782-1.69,5.477-6.126,3.787-9.908c-1.69-3.781-6.124-5.477-9.908-3.787l-0.412,0.184l1.455-25.404
	c0.158-2.766,1.78-5.286,4.232-6.575l28.47-14.967c1.776-0.934,3.823-1.161,5.763-0.638l29.848,8.056
	c2.729,0.737,4.876,2.891,5.604,5.622c0.042,0.156,0.096,0.305,0.147,0.456l-6.549,13.108c-1.913,3.83-2.742,8.108-2.397,12.374
	c0.317,3.924,3.599,6.897,7.467,6.897c0.202,0,0.407-0.008,0.612-0.025c4.129-0.333,7.206-3.951,6.872-8.079
	c-0.124-1.539,0.175-3.082,0.865-4.463l14.76-29.543c0.722-1.444,1.834-2.646,3.219-3.476l28.156-16.881
	c2.533-1.519,5.725-1.599,8.331-0.211l29.346,15.634c1.89,1.007,3.316,2.675,4.017,4.697l0.16,0.461
	c-0.872,0.834-1.69,1.728-2.428,2.694c-2.518,3.289-1.892,7.997,1.397,10.514c3.29,2.519,7.998,1.893,10.514-1.397
	c0.938-1.226,2.194-2.171,3.632-2.735l26.14-10.247l1.165,3.993c0.956,3.275,3.949,5.402,7.197,5.402
	c0.695,0,1.402-0.098,2.104-0.302c3.977-1.16,6.26-5.324,5.1-9.3l-0.247-0.848l26.223,5.147c2.898,0.569,5.322,2.647,6.328,5.423
	l11.321,31.264c0.729,2.013,0.671,4.208-0.163,6.179l-12.453,29.436c-1.174,2.775-3.76,4.729-6.75,5.101l-24.827,3.086l2.369-8.338
	c1.132-3.985-1.18-8.132-5.165-9.264c-3.982-1.133-8.132,1.18-9.264,5.165l-3.745,13.181l-29.73-1.677
	c-3.051-0.172-5.781-1.984-7.125-4.729l-14.303-29.227c-1.42-2.902-1.082-6.298,0.881-8.864c2.518-3.289,1.892-7.997-1.397-10.514
	s-7.997-1.892-10.514,1.398c-5.444,7.113-6.38,16.529-2.443,24.574l6.621,13.529l-22.531,18.128
	c-2.382,1.916-5.623,2.398-8.458,1.26L181.326,348.225z M362.188,368.64c0.568-0.164,1.146-0.246,1.721-0.246
	c1.027,0,2.043,0.26,2.967,0.769c2.977,1.641,4.064,5.398,2.423,8.375c-0.795,1.442-2.104,2.488-3.686,2.945
	c-1.583,0.458-3.248,0.272-4.689-0.523c-1.442-0.795-2.488-2.104-2.946-3.686s-0.271-3.247,0.523-4.689
	S360.606,369.098,362.188,368.64z M275.708,422.355c-2.367,1.864-5.577,2.326-8.374,1.208l-30.986-12.382
	c-0.472-0.189-0.929-0.421-1.358-0.69l-30.312-19.014c-2.589-1.624-4.105-4.529-3.956-7.582l0.561-11.494l4.649,1.867
	c2.82,1.132,5.784,1.687,8.731,1.687c0.721,0,1.439-0.04,2.156-0.106l1.69,2.771c1.413,2.317,3.881,3.595,6.41,3.595
	c1.331,0,2.679-0.354,3.898-1.098c3.536-2.157,4.654-6.772,2.497-10.309l-0.649-1.065l18.605-14.969l0.922,1.884
	c3.725,7.611,11.293,12.635,19.753,13.113l5.243,0.296l-0.427,8.749c-0.413,8.463,3.79,16.517,10.967,21.019l10.348,6.491
	L275.708,422.355z M398.156,360.064l-5.182,32.845c-0.333,2.114-1.443,4.008-3.125,5.332l-25.117,19.766
	c-2.368,1.863-5.577,2.326-8.374,1.208l-23.232-9.284l6.1-6.159c2.915-2.942,2.892-7.691-0.051-10.606
	c-2.943-2.915-7.691-2.892-10.606,0.051l-9.643,9.735L293.7,387.129c-2.589-1.624-4.104-4.529-3.956-7.581l0.421-8.635l15.504,0.875
	c0.126,0.007,3.257-0.022,4.218-0.142l33.116-4.117c0.343-0.043,0.681-0.104,1.02-0.162c-3.486,9.619,0.423,20.638,9.659,25.73
	c3.174,1.75,6.663,2.64,10.189,2.64c1.974,0,3.961-0.279,5.91-0.843c5.431-1.571,9.924-5.162,12.654-10.113
	c5.634-10.22,1.904-23.118-8.316-28.753c-3.857-2.126-8.178-2.966-12.469-2.497c0.021-0.049,0.046-0.096,0.067-0.145l9.126-21.571
	l24.389,20.445C397.496,354.157,398.615,357.147,398.156,360.064z M424.012,319.243l-27.773,14.287l-5.83-4.887l6.846-11.982
	c2.055-3.596,0.806-8.178-2.791-10.232c-3.595-2.054-8.178-0.806-10.232,2.791l-5.523,9.665c-0.891-0.667-1.832-1.265-2.808-1.799
	c0.337-3.443-0.074-6.942-1.277-10.266l-9.949-27.476l14.077-27.072l12.202,3.978l-5.272,9.106
	c-2.075,3.584-0.852,8.173,2.733,10.249c1.183,0.685,2.475,1.011,3.751,1.011c2.588,0,5.107-1.342,6.498-3.744l5.64-9.741
	l19.475,10.608c2.518,1.372,4.105,4.004,4.141,6.872l0.401,31.472C428.357,315.112,426.708,317.856,424.012,319.243z"/>
<path d="M411.505,286.616c-2.371-3.396-7.044-4.227-10.443-1.858c-3.396,2.371-4.229,7.046-1.858,10.443l2.39,3.425
	c1.458,2.089,3.789,3.208,6.157,3.208c1.482,0,2.979-0.438,4.286-1.35c3.396-2.371,4.229-7.046,1.858-10.443L411.505,286.616z"/>
<path d="M437.02,74.98C388.667,26.629,324.38,0,256,0S123.333,26.629,74.98,74.98C26.629,123.333,0,187.62,0,256
	s26.629,132.667,74.98,181.02C123.333,485.371,187.62,512,256,512s132.667-26.629,181.02-74.98C485.371,388.667,512,324.38,512,256
	S485.371,123.333,437.02,74.98z M426.413,426.413C380.894,471.932,320.374,497,256,497s-124.894-25.068-170.413-70.587
	S15,320.374,15,256S40.068,131.106,85.587,85.587S191.626,15,256,15s124.894,25.068,170.413,70.587S497,191.626,497,256
	S471.932,380.894,426.413,426.413z"/>
<path d="M170.092,234.482c41.935,0,76.052-34.117,76.052-76.051c0-41.935-34.117-76.052-76.052-76.052S94.04,116.496,94.04,158.431
	S128.157,234.482,170.092,234.482z M170.092,97.379c33.664,0,61.052,27.388,61.052,61.052s-27.388,61.051-61.052,61.051
	s-61.052-27.388-61.052-61.051C109.04,124.767,136.428,97.379,170.092,97.379z"/>
<path d="M170.092,200.207c11.159,0,21.649-4.346,29.54-12.236c10.507-10.507,14.655-25.962,10.824-40.333
	c-1.067-4.002-5.177-6.382-9.179-5.315s-6.382,5.177-5.315,9.179c2.458,9.217-0.201,19.127-6.936,25.863
	c-5.057,5.057-11.781,7.843-18.933,7.843s-13.876-2.786-18.934-7.843s-7.843-11.781-7.843-18.934c0-7.152,2.786-13.876,7.843-18.933
	c6.738-6.739,16.654-9.395,25.873-6.934c4.002,1.069,8.112-1.31,9.181-5.312c1.068-4.002-1.31-8.112-5.312-9.181
	c-14.375-3.838-29.837,0.308-40.349,10.819c-7.891,7.89-12.236,18.381-12.236,29.54s4.346,21.65,12.236,29.54
	C148.442,195.861,158.933,200.207,170.092,200.207z"/>
<path d="M286.896,305.658c1.464,1.464,3.384,2.197,5.303,2.197s3.839-0.732,5.303-2.197c2.929-2.929,2.929-7.678,0-10.606
	l-5.355-5.355c-2.929-2.929-7.678-2.929-10.606,0c-2.929,2.929-2.929,7.678,0,10.606L286.896,305.658z"/>
<path d="M272.948,334.716l3.749,2.142c1.174,0.67,2.452,0.989,3.714,0.989c2.604,0,5.135-1.358,6.519-3.781
	c2.055-3.596,0.805-8.178-2.792-10.233l-3.749-2.142c-3.596-2.054-8.178-0.805-10.233,2.792
	C268.102,328.079,269.351,332.661,272.948,334.716z"/>
<path d="M326.2,331.062c11.67,0,21.165-9.494,21.165-21.165s-9.494-21.165-21.165-21.165s-21.165,9.494-21.165,21.165
	S314.53,331.062,326.2,331.062z M326.2,303.733c3.399,0,6.165,2.766,6.165,6.165s-2.766,6.165-6.165,6.165s-6.165-2.766-6.165-6.165
	S322.801,303.733,326.2,303.733z"/>
<g>
</g>
<g>
</g>
<g>
</g>
<g>
</g>
<g>
</g>
<g>
</g>
<g>
</g>
<g>
</g>
<g>
</g>
<g>
</g>
<g>
</g>
<g>
</g>
<g>
</g>
<g>
</g>
<g>
</g>
</svg>
