<?xml version="1.0" encoding="iso-8859-1"?>
<!-- Generator: Adobe Illustrator 19.0.0, SVG Export Plug-In . SVG Version: 6.00 Build 0)  -->
<svg version="1.1" id="Capa_1" xmlns="http://www.w3.org/2000/svg" xmlns:xlink="http://www.w3.org/1999/xlink" x="0px" y="0px"
	 viewBox="0 0 512 512" style="enable-background:new 0 0 512 512;" xml:space="preserve">
<circle style="fill:#F7F0E6;" cx="256" cy="256" r="256"/>
<path style="fill:#EEE2D4;" d="M439.077,300.104c1.155-8.855,11.128-17.277,11.128-26.447c0-9.167-9.972-17.587-11.127-26.439
	c-1.181-9.059,6.269-19.759,3.956-28.411c-2.351-8.796-14.164-14.343-17.603-22.637c-3.48-8.391,0.93-20.665-3.578-28.457
	c-4.539-7.846-17.386-10.14-22.881-17.292c-5.513-7.175-4.423-20.176-10.811-26.565l-31.18-16.071
	c-4.03-6.145-6.792-14.223-12.676-17.628c-7.792-4.509-20.067-0.101-28.459-3.582c-8.296-3.441-13.845-15.255-22.644-17.608
	c-8.652-2.313-19.353,5.137-28.412,3.955c-8.855-1.155-17.277-11.127-26.447-11.127c-9.167,0-17.586,9.972-26.439,11.126
	c-9.059,1.182-19.759-6.269-28.411-3.956c-8.797,2.351-14.343,14.165-22.637,17.604c-8.391,3.479-20.665-0.93-28.457,3.578
	c-7.846,4.539-10.14,17.386-17.292,22.881c-7.175,5.513-20.176,4.423-26.565,10.811c-6.389,6.388-5.301,19.39-10.815,26.565
	c-5.497,7.151-18.345,9.445-22.885,17.291c-4.509,7.792-0.101,20.067-3.582,28.459c-3.441,8.296-15.255,13.844-17.607,22.643
	c-2.314,8.652,5.136,19.353,3.955,28.413c-1.155,8.855-11.128,17.277-11.128,26.447c0,9.167,9.972,17.586,11.127,26.439
	c1.181,9.059-6.269,19.759-3.956,28.411c2.351,8.796,14.164,14.343,17.603,22.637c3.48,8.391-0.93,20.665,3.578,28.457
	c4.539,7.846,17.386,10.14,22.881,17.292c5.513,7.176,4.423,20.177,10.811,26.565l31.18,16.071
	c4.03,6.145,6.791,14.224,12.676,17.629c7.792,4.509,20.067,0.101,28.459,3.581c8.296,3.441,13.845,15.255,22.644,17.608
	c8.652,2.314,19.353-5.136,28.412-3.955c8.855,1.155,17.277,11.128,26.447,11.128c9.167,0,17.586-9.972,26.439-11.127
	c9.059-1.181,19.759,6.269,28.411,3.956c8.797-2.351,14.343-14.164,22.637-17.603c8.391-3.48,20.665,0.93,28.457-3.578
	c7.846-4.539,10.14-17.386,17.292-22.882c7.175-5.513,20.176-4.423,26.565-10.811s5.301-19.39,10.815-26.565
	c5.497-7.152,18.345-9.445,22.885-17.291c4.509-7.793,0.101-20.067,3.582-28.459c3.441-8.296,15.255-13.845,17.607-22.644
	C445.346,319.864,437.896,309.163,439.077,300.104z"/>
<path style="fill:#FFFFFF;" d="M456.734,282.447c1.155-8.855,11.128-17.277,11.128-26.447c0-9.167-9.972-17.587-11.127-26.439
	c-1.181-9.059,6.269-19.759,3.956-28.411c-2.351-8.796-14.164-14.343-17.603-22.637c-3.48-8.391,0.93-20.665-3.578-28.457
	c-4.539-7.846-17.386-10.14-22.881-17.292c-5.513-7.175-4.423-20.176-10.811-26.565l-31.18-16.071
	c-4.03-6.145-6.791-14.223-12.676-17.628c-7.792-4.509-20.067-0.101-28.458-3.582c-8.296-3.441-13.845-15.255-22.644-17.608
	c-8.652-2.313-19.353,5.137-28.412,3.955C273.592,54.11,265.17,44.138,256,44.138c-9.167,0-17.586,9.972-26.439,11.126
	c-9.059,1.182-19.759-6.269-28.411-3.956c-8.797,2.351-14.343,14.165-22.637,17.604c-8.391,3.479-20.665-0.93-28.457,3.578
	c-7.846,4.539-10.14,17.386-17.292,22.881c-7.175,5.513-20.176,4.423-26.565,10.811s-5.301,19.39-10.815,26.565
	c-5.497,7.151-18.345,9.445-22.885,17.291c-4.509,7.792-0.101,20.067-3.582,28.459c-3.441,8.296-15.255,13.844-17.607,22.643
	c-2.314,8.652,5.136,19.353,3.955,28.413C54.11,238.408,44.138,246.83,44.138,256c0,9.167,9.972,17.586,11.127,26.439
	c1.181,9.059-6.269,19.759-3.956,28.411c2.351,8.796,14.164,14.343,17.603,22.637c3.48,8.391-0.93,20.665,3.578,28.457
	c4.539,7.846,17.386,10.14,22.881,17.291c5.513,7.176,4.423,20.177,10.811,26.565l31.18,16.071
	c4.03,6.145,6.791,14.224,12.676,17.629c7.792,4.509,20.067,0.101,28.459,3.581c8.296,3.441,13.845,15.255,22.644,17.608
	c8.652,2.314,19.353-5.136,28.412-3.955c8.855,1.155,17.277,11.128,26.447,11.128c9.167,0,17.586-9.972,26.439-11.127
	c9.059-1.181,19.759,6.269,28.411,3.956c8.797-2.351,14.343-14.164,22.637-17.603c8.391-3.48,20.665,0.93,28.457-3.578
	c7.846-4.539,10.14-17.386,17.292-22.882c7.175-5.513,20.176-4.423,26.565-10.811s5.301-19.39,10.815-26.565
	c5.497-7.152,18.345-9.445,22.885-17.291c4.509-7.793,0.101-20.067,3.582-28.458c3.441-8.296,15.255-13.845,17.607-22.644
	C463.003,302.207,455.553,291.506,456.734,282.447z"/>
<g>
	<circle style="fill:#FFE8C2;" cx="246.99" cy="217.01" r="36.813"/>
	<circle style="fill:#FFE8C2;" cx="294.27" cy="372.4" r="25.978"/>
	<circle style="fill:#FFE8C2;" cx="149.16" cy="291.29" r="28"/>
	<circle style="fill:#FFE8C2;" cx="275.02" cy="127.19" r="22.791"/>
	<circle style="fill:#FFE8C2;" cx="371.39" cy="247.1" r="22.791"/>
	<circle style="fill:#FFE8C2;" cx="345.01" cy="146.72" r="19.533"/>
	<circle style="fill:#FFE8C2;" cx="198.62" cy="390.95" r="19.533"/>
</g>
<g>
	<path style="fill:#FFBE50;" d="M259.853,315.907l-29.199,5.84c-5.494,1.099-10.338-3.745-9.239-9.239l6.335-31.676
		c1.024-5.119,4.905-9.19,9.97-10.456l23.237-5.809c4.956-1.239,9.756,2.509,9.756,7.617v30.477
		C270.713,309.1,266.168,314.644,259.853,315.907z"/>
	<path style="fill:#FFBE50;" d="M237.621,190.956l21.938,20.017c4.128,3.766,3.096,10.52-1.969,12.881l-29.198,13.616
		c-4.718,2.2-10.282,1.485-14.291-1.837L195.71,220.39c-3.922-3.251-3.745-9.322,0.36-12.339l24.492-17.999
		C225.738,186.249,232.877,186.627,237.621,190.956z"/>
	<path style="fill:#FFBE50;" d="M155.748,216.467l3.402,29.502c0.64,5.551-4.573,9.967-9.943,8.423l-30.962-8.903
		c-5.004-1.439-8.73-5.632-9.572-10.769l-3.862-23.573c-0.824-5.027,3.297-9.49,8.374-9.07l30.291,2.507
		C149.876,205.114,155.012,210.088,155.748,216.467z"/>
	<path style="fill:#FFBE50;" d="M348.177,217.151l0.512-26.623c0.096-5.009-5.499-8.267-10.672-6.213l-29.826,11.839
		c-4.82,1.913-8.107,6.109-8.444,10.777l-1.543,21.418c-0.329,4.568,4.187,8.006,9.179,6.988l29.781-6.076
		C343.457,227.977,348.066,222.908,348.177,217.151z"/>
	<path style="fill:#FFBE50;" d="M266.299,107.83l-25.665-7.094c-4.829-1.335-9.372,3.278-8.664,8.799l4.078,31.829
		c0.659,5.144,3.909,9.368,8.349,10.851l20.367,6.802c4.344,1.451,8.794-2.073,9.044-7.161l1.493-30.358
		C275.617,115.085,271.849,109.364,266.299,107.83z"/>
	<path style="fill:#FFBE50;" d="M354.503,310.477l-26.549-2.042c-4.995-0.384-8.569,5.014-6.817,10.297l10.105,30.457
		c1.633,4.922,5.633,8.445,10.274,9.049l21.294,2.772c4.541,0.591,8.233-3.72,7.504-8.762l-4.354-30.081
		C365.039,315.811,360.244,310.918,354.503,310.477z"/>
	<path style="fill:#FFBE50;" d="M164.639,318.934l-5.007-26.153c-0.942-4.921-7.09-6.95-11.726-3.871l-26.731,17.753
		c-4.32,2.869-6.668,7.654-6.031,12.291l2.921,21.274c0.623,4.537,5.753,6.966,10.426,4.937l27.88-12.106
		C162.261,330.502,165.721,324.59,164.639,318.934z"/>
	<path style="fill:#FFBE50;" d="M258.305,369.194l-8.654,15.941c-2.443,4.501-0.244,10.117,4.605,11.763l27.301,9.263
		c4.796,1.627,9.914-1.406,10.789-6.395l4.683-26.693c0.924-5.267-3.325-10.011-8.662-9.67l-23.33,1.489
		C262.203,365.072,259.66,366.697,258.305,369.194z"/>
	<path style="fill:#FFBE50;" d="M400.598,282.829l13.396-12.229c3.782-3.453,3.543-9.48-0.5-12.622l-22.763-17.691
		c-3.999-3.108-9.828-1.918-12.288,2.51l-13.165,23.689c-2.598,4.674-0.136,10.548,5.018,11.973l22.531,6.231
		C395.565,285.447,398.5,284.744,400.598,282.829z"/>
	<path style="fill:#FFBE50;" d="M334.773,149.457l13.587-5.787c3.836-1.634,5.398-6.306,3.271-9.784l-11.972-19.582
		c-2.103-3.44-6.822-4.081-9.947-1.35l-16.724,14.611c-3.3,2.883-3.15,8.029,0.307,10.49l15.109,10.758
		C330.24,150.12,332.646,150.363,334.773,149.457z"/>
	<path style="fill:#FFBE50;" d="M187.431,162.698l6.852-13.083c1.935-3.694,0.186-8.299-3.663-9.645l-21.666-7.576
		c-3.806-1.331-7.864,1.161-8.554,5.254l-3.693,21.899c-0.729,4.321,2.646,8.209,6.879,7.925l18.507-1.24
		C184.342,166.081,186.358,164.747,187.431,162.698z"/>
	<path style="fill:#FFBE50;" d="M203.51,364.817l-12.141-8.409c-3.428-2.374-8.213-1.205-10.022,2.449l-10.183,20.57
		c-1.789,3.614,0.185,7.947,4.162,9.135l21.278,6.358c4.199,1.255,8.472-1.616,8.711-5.853l1.045-18.519
		C206.488,368.299,205.412,366.134,203.51,364.817z"/>
</g>
<path style="fill:#EEE2D4;" d="M193.474,289.103c-1.164,0-2.345-0.224-3.474-0.716c-4.483-1.914-6.56-7.103-4.638-11.586
	l4.414-10.302c1.922-4.491,7.129-6.569,11.586-4.638c4.483,1.914,6.56,7.103,4.638,11.586l-4.414,10.302
	C200.155,287.103,196.897,289.103,193.474,289.103z"/>
<path style="fill:#F7F0E6;" d="M329.569,279.543c-0.414,0-0.836-0.026-1.259-0.086l-10.293-1.474
	c-4.828-0.698-8.181-5.164-7.491-9.991c0.69-4.819,5.181-8.155,9.991-7.491l10.293,1.474c4.828,0.698,8.181,5.164,7.491,9.991
	C337.672,276.371,333.888,279.543,329.569,279.543z"/>
<path style="fill:#EEE2D4;" d="M381.052,175.078c-1.431,0-2.879-0.345-4.216-1.078c-4.284-2.336-5.862-7.698-3.526-11.974
	l4.414-8.095c2.336-4.28,7.716-5.858,11.974-3.522c4.284,2.336,5.862,7.698,3.526,11.978l-4.414,8.086
	C387.207,173.414,384.181,175.078,381.052,175.078z"/>
<g>
	<path style="fill:#F7F0E6;" d="M407.534,225.103c-1.328,0-2.672-0.302-3.94-0.931l-10.302-5.147
		c-4.362-2.181-6.129-7.483-3.948-11.845s7.483-6.112,11.845-3.948l10.302,5.147c4.362,2.181,6.129,7.483,3.948,11.845
		C413.897,223.319,410.776,225.103,407.534,225.103z"/>
	<path style="fill:#F7F0E6;" d="M409,192c-1.991,0-3.991-0.672-5.647-2.052c-3.741-3.121-4.25-8.69-1.121-12.431l3.681-4.414
		c3.112-3.741,8.672-4.25,12.431-1.121c3.741,3.121,4.25,8.69,1.121,12.431l-3.681,4.414C414.043,190.922,411.534,192,409,192z"/>
	<path style="fill:#F7F0E6;" d="M297.94,179.491c-2.853,0-5.655-1.379-7.353-3.931c-2.707-4.06-1.603-9.543,2.448-12.241l4.414-2.94
		c4.06-2.698,9.543-1.608,12.241,2.448c2.707,4.06,1.603,9.543-2.448,12.241l-4.414,2.94
		C301.319,179.009,299.621,179.491,297.94,179.491z"/>
</g>
<path style="fill:#EEE2D4;" d="M120.647,171.405c-2.069,0-4.138-0.716-5.81-2.181l-5.888-5.155
	c-3.672-3.207-4.043-8.784-0.836-12.453c3.216-3.677,8.802-4.039,12.457-0.832l5.888,5.151c3.672,3.211,4.043,8.789,0.836,12.453
	C125.543,170.388,123.103,171.405,120.647,171.405z"/>
<g>
	<path style="fill:#F7F0E6;" d="M195.672,117.703c-1.776,0-3.569-0.534-5.121-1.642c-3.966-2.832-4.888-8.345-2.052-12.315
		l7.353-10.302c2.819-3.961,8.353-4.879,12.31-2.056c3.966,2.832,4.888,8.345,2.052,12.315l-7.353,10.302
		C201.147,116.418,198.431,117.703,195.672,117.703z"/>
	<path style="fill:#F7F0E6;" d="M87.534,291.31c-4.388,0-8.19-3.267-8.75-7.733c-0.603-4.836,2.828-9.25,7.664-9.853l17.655-2.207
		c4.853-0.543,9.25,2.828,9.853,7.664s-2.828,9.25-7.664,9.853l-17.655,2.207C88.267,291.284,87.897,291.31,87.534,291.31z"/>
</g>
<path style="fill:#EEE2D4;" d="M139.759,390.621c-1.845,0-3.698-0.578-5.284-1.767c-3.905-2.922-4.698-8.457-1.767-12.353
	l6.621-8.828c2.931-3.914,8.457-4.69,12.353-1.767c3.905,2.922,4.698,8.457,1.767,12.353l-6.621,8.828
	C145.095,389.405,142.448,390.621,139.759,390.621z"/>
<path style="fill:#F7F0E6;" d="M236.871,433.284c-2.259,0-4.517-0.862-6.241-2.586l-3.672-3.672c-3.448-3.448-3.448-9.034,0-12.483
	c3.448-3.448,9.034-3.448,12.483,0l3.672,3.672c3.448,3.448,3.448,9.034,0,12.483C241.388,432.422,239.129,433.284,236.871,433.284z
	"/>
<path style="fill:#EEE2D4;" d="M234.655,367.078c-1.681,0-3.388-0.483-4.897-1.483c-4.052-2.716-5.147-8.198-2.44-12.25l2.948-4.414
	c2.707-4.043,8.181-5.138,12.25-2.44c4.052,2.716,5.147,8.198,2.44,12.25l-2.948,4.414
	C240.302,365.698,237.509,367.078,234.655,367.078z"/>
<g>
	<path style="fill:#F7F0E6;" d="M294.991,339.129c-3.422,0-6.681-2.009-8.112-5.353l-2.207-5.155
		c-1.922-4.483,0.155-9.672,4.638-11.586c4.44-1.94,9.672,0.147,11.586,4.638l2.207,5.155c1.922,4.483-0.155,9.672-4.638,11.586
		C297.336,338.905,296.155,339.129,294.991,339.129z"/>
	<path style="fill:#F7F0E6;" d="M328.836,411.216c-3.147,0-6.19-1.681-7.784-4.647c-2.31-4.293-0.698-9.647,3.595-11.957l9.56-5.147
		c4.284-2.302,9.647-0.707,11.957,3.595c2.31,4.293,0.698,9.647-3.595,11.957l-9.56,5.147
		C331.681,410.879,330.25,411.216,328.836,411.216z"/>
	<path style="fill:#F7F0E6;" d="M390.621,325.147c-0.922,0-1.862-0.147-2.793-0.457c-4.621-1.534-7.121-6.534-5.578-11.164
		l2.207-6.621c1.534-4.621,6.509-7.147,11.164-5.578c4.621,1.534,7.121,6.534,5.578,11.164l-2.207,6.621
		C397.759,322.81,394.319,325.147,390.621,325.147z"/>
</g>
<g>
	<path style="fill:#EEE2D4;" d="M407.534,348.69c-1.397,0-2.819-0.336-4.147-1.034c-4.302-2.293-5.931-7.638-3.638-11.948
		l5.879-11.034c2.284-4.293,7.612-5.914,11.948-3.638c4.302,2.293,5.931,7.638,3.638,11.948l-5.879,11.034
		C413.75,346.991,410.69,348.69,407.534,348.69z"/>
	<path style="fill:#EEE2D4;" d="M292.043,97.845c-1.034,0-2.078-0.185-3.103-0.569l-5.879-2.207
		c-4.56-1.711-6.871-6.802-5.164-11.366c1.724-4.573,6.793-6.866,11.371-5.159l5.879,2.207c4.56,1.711,6.871,6.802,5.164,11.366
		C298.974,95.659,295.612,97.845,292.043,97.845z"/>
</g>
<g>
	<path style="fill:#F7F0E6;" d="M217.009,170.664h-2.207c-4.879,0-8.828-3.948-8.828-8.828c0-4.875,3.948-8.828,8.828-8.828h2.207
		c4.879,0,8.828,3.953,8.828,8.828C225.836,166.716,221.888,170.664,217.009,170.664z"/>
	<path style="fill:#F7F0E6;" d="M191.991,336.181c-3.957,0-7.552-2.672-8.552-6.69l-2.207-8.828
		c-1.19-4.724,1.69-9.517,6.422-10.698c4.716-1.207,9.517,1.69,10.698,6.422l2.207,8.828c1.19,4.724-1.69,9.517-6.422,10.698
		C193.422,336.095,192.698,336.181,191.991,336.181z"/>
</g>
<path style="fill:#EEE2D4;" d="M301.621,300.871c-2.586,0-5.147-1.129-6.897-3.302l-2.948-3.672
	c-3.052-3.802-2.44-9.353,1.362-12.414c3.802-3.034,9.353-2.448,12.414,1.362l2.948,3.672c3.052,3.802,2.44,9.353-1.362,12.414
	C305.509,300.233,303.56,300.871,301.621,300.871z"/>
<g>
	<path style="fill:#F7F0E6;" d="M94.155,193.474c-1.836,0-3.698-0.569-5.284-1.759c-3.897-2.922-4.698-8.457-1.776-12.362
		l2.207-2.948c2.922-3.888,8.448-4.707,12.362-1.776c3.897,2.922,4.698,8.457,1.776,12.362l-2.207,2.948
		C99.5,192.25,96.845,193.474,94.155,193.474z"/>
	<path style="fill:#F7F0E6;" d="M426.655,307.491c-1.681,0-3.371-0.474-4.871-1.474l-2.207-1.466
		c-4.069-2.698-5.172-8.172-2.474-12.233c2.698-4.069,8.181-5.181,12.233-2.474l2.207,1.466c4.069,2.698,5.172,8.172,2.474,12.233
		C432.319,306.103,429.517,307.491,426.655,307.491z"/>
</g>
<g>
	<path style="fill:#FFA55F;" d="M228.034,227.624l-16.343-27.712c-0.483-0.819-0.83-1.672-1.098-2.535l-14.524,10.673
		c-4.105,3.017-4.282,9.088-0.36,12.339l18.392,15.243c4.008,3.322,9.572,4.038,14.29,1.837l6.502-3.032
		C232.174,232.886,229.774,230.574,228.034,227.624z"/>
	<path style="fill:#FFA55F;" d="M325.455,227.774l-0.705-32.435c-0.047-2.164,0.279-4.168,0.771-6.064l-17.33,6.879
		c-4.82,1.913-8.107,6.109-8.444,10.777l-1.543,21.418c-0.329,4.568,4.187,8.006,9.179,6.988l18.692-3.814
		C325.732,230.334,325.484,229.088,325.455,227.774z"/>
	<path style="fill:#FFA55F;" d="M249.286,142.151l4.567-34.28c0.157-1.177,0.563-2.224,1.078-3.183l-14.296-3.952
		c-4.829-1.335-9.372,3.278-8.664,8.799l4.078,31.829c0.659,5.144,3.909,9.369,8.349,10.851l10.555,3.525
		C250.758,152.963,248.55,147.678,249.286,142.151z"/>
	<path style="fill:#FFA55F;" d="M340.13,146.656l-12.638-25.023c-0.983-1.947-1.187-4.031-0.839-6.006l-13.664,11.938
		c-3.3,2.883-3.15,8.029,0.307,10.49l15.109,10.759c1.836,1.307,4.241,1.551,6.37,0.644l5.631-2.398
		C340.323,146.916,340.204,146.803,340.13,146.656z"/>
	<path style="fill:#FFA55F;" d="M179.026,162.246l-4.368-27.189c-0.037-0.228,0.053-0.43,0.035-0.656l-5.739-2.007
		c-3.807-1.331-7.864,1.161-8.554,5.254l-3.693,21.899c-0.728,4.321,2.646,8.209,6.879,7.925l17.4-1.165
		C180.039,165.168,179.284,163.85,179.026,162.246z"/>
	<path style="fill:#FFA55F;" d="M128.101,231.539c-2.902-4.322-3.054-9.93-0.39-14.403l7.865-13.206l-22.392-1.853
		c-5.077-0.42-9.197,4.043-8.373,9.07l3.862,23.573c0.842,5.138,4.568,9.331,9.572,10.769l23.821,6.85L128.101,231.539z"/>
	<path style="fill:#FFA55F;" d="M146.658,333.593l-23.784-25.935c-0.425-0.463-0.585-1.018-0.904-1.523l-0.796,0.529
		c-4.32,2.869-6.668,7.654-6.032,12.29l2.921,21.274c0.623,4.537,5.753,6.967,10.426,4.938l21.158-9.188
		C148.609,335.258,147.551,334.566,146.658,333.593z"/>
	<path style="fill:#FFA55F;" d="M255.724,314.463l-13.643-33.022c-1.657-4.011-1.463-8.468,0.381-12.252l-4.742,1.186
		c-5.064,1.266-8.946,5.337-9.97,10.456l-6.335,31.676c-1.099,5.494,3.745,10.338,9.239,9.239l26.262-5.253
		C256.446,315.89,256.036,315.219,255.724,314.463z"/>
	<path style="fill:#FFA55F;" d="M394.062,278.872l-6.864-30.499c-0.78-3.466-0.258-6.79,1.123-9.225
		c-3.667-1.268-7.873,0.039-9.878,3.649l-13.165,23.689c-2.598,4.675-0.136,10.547,5.018,11.973l22.531,6.232
		c1.401,0.387,2.85,0.381,4.216,0.037C395.663,283.173,394.581,281.176,394.062,278.872z"/>
	<path style="fill:#FFA55F;" d="M347.616,349.713l-4.123-36.229c-0.154-1.353,0.013-2.634,0.354-3.828l-15.893-1.223
		c-4.996-0.384-8.569,5.015-6.817,10.297l10.105,30.457c1.633,4.922,5.633,8.445,10.274,9.05l11.339,1.476
		C350.044,357.316,348.081,353.796,347.616,349.713z"/>
	<path style="fill:#FFA55F;" d="M274.375,401.503c-2.552-2.544-3.617-6.221-2.821-9.735l6.275-27.693l-12.791,0.816
		c-2.835,0.181-5.378,1.806-6.733,4.302l-8.654,15.941c-2.443,4.501-0.245,10.117,4.605,11.763l23.495,7.971L274.375,401.503z"/>
	<path style="fill:#FFA55F;" d="M189.017,390.823l3.708-30.348c0.113-0.922,0.534-1.7,0.906-2.501l-2.261-1.566
		c-3.428-2.374-8.213-1.204-10.022,2.449l-10.183,20.57c-1.789,3.614,0.185,7.947,4.162,9.135l13.887,4.15
		C189.147,392.08,188.935,391.487,189.017,390.823z"/>
</g>
<g>
</g>
<g>
</g>
<g>
</g>
<g>
</g>
<g>
</g>
<g>
</g>
<g>
</g>
<g>
</g>
<g>
</g>
<g>
</g>
<g>
</g>
<g>
</g>
<g>
</g>
<g>
</g>
<g>
</g>
</svg>
